<svg xmlns="http://www.w3.org/2000/svg" xmlns:xlink="http://www.w3.org/1999/xlink" enable-background="new 0 0 128 128" id="Слой_1" version="1.1" viewBox="0 0 128 128" xml:space="preserve"><g><rect fill="#0071a6" height="4" width="37" x="57" y="100"/><rect fill="#0071a6" height="4" width="13" x="57" y="109"/><rect fill="#0071a6" height="4" width="37" x="57" y="70"/><rect fill="#0071a6" height="4" width="13" x="57" y="79"/><rect fill="#0071a6" height="4" width="37" x="57" y="40"/><rect fill="#0071a6" height="4" width="13" x="57" y="49"/><path d="M69.8,9c0-3.9-3.1-7-7-7s-7,3.1-7,7H46v5l-25,0v112h84V14l-25,0V9H69.8z M62.8,6c1.7,0,3,1.3,3,3h-6   C59.8,7.3,61.2,6,62.8,6z M50,13h26v6H50V13z M101,18v104H25V18l21,0v5h34v-5L101,18z" fill="#0071a6"/><path d="M31,116h19V97H31V116z M35,101h11v11H35V101z" fill="#0071a6"/><path d="M31,86h19V67H31V86z M35,71h11v11H35V71z" fill="#0071a6"/><path d="M31,56h19V37H31V56z M35,41h11v11H35V41z" fill="#0071a6"/></g></svg>