<?xml version="1.0" standalone="no"?>
<!DOCTYPE svg PUBLIC "-//W3C//DTD SVG 20010904//EN"
 "http://www.w3.org/TR/2001/REC-SVG-20010904/DTD/svg10.dtd">
<svg version="1.0" xmlns="http://www.w3.org/2000/svg"
 width="684.000000pt" height="225.000000pt" viewBox="0 0 684.000000 225.000000"
 preserveAspectRatio="xMidYMid meet">

<g transform="translate(0.000000,225.000000) scale(0.100000,-0.100000)"
fill="#0a318b" stroke="none">
<path d="M140 1946 c-57 -34 -77 -66 -42 -66 18 0 21 -9 27 -67 4 -38 14 -80
21 -95 8 -15 10 -29 6 -32 -5 -3 -7 -33 -6 -68 11 -317 15 -392 23 -406 9 -19
8 -353 -2 -368 -3 -6 -4 -57 -2 -114 1 -58 3 -109 3 -115 1 -47 -7 -146 -12
-154 -9 -14 -24 -143 -19 -158 7 -17 92 17 99 39 3 10 12 18 19 18 22 0 34 30
24 64 -5 17 -9 61 -9 98 0 39 -4 68 -10 68 -5 0 -10 11 -10 25 0 14 4 25 9 25
10 0 8 77 -3 102 -4 9 -5 22 -1 29 4 6 7 52 6 103 -1 98 11 138 44 145 11 2
31 12 44 22 13 11 39 19 57 19 18 0 36 5 39 10 3 6 17 10 31 10 30 0 66 17 77
36 4 8 15 14 23 14 22 0 86 35 108 59 11 12 25 21 33 21 7 0 17 8 20 18 4 9
24 37 46 62 32 37 38 50 34 77 -4 24 0 38 18 58 14 14 28 25 32 25 12 -1 32
99 33 160 0 86 -60 165 -160 207 -8 3 -37 15 -65 25 -27 11 -58 27 -68 36 -18
16 -20 16 -32 -1 -16 -23 -24 -22 -34 6 -9 22 -33 33 -147 70 -61 20 -88 21
-116 6 -17 -9 -24 -8 -33 5 -18 23 -43 19 -105 -18z m250 -96 c0 -22 7 -45 16
-54 22 -23 62 -30 79 -16 12 10 18 9 32 -8 10 -11 32 -24 49 -30 26 -8 35 -7
48 6 15 16 17 15 22 -4 3 -12 30 -43 61 -69 79 -69 90 -96 75 -195 -17 -118
-50 -180 -122 -229 -33 -23 -65 -41 -71 -41 -6 0 -28 -9 -48 -20 -20 -11 -70
-26 -111 -35 -41 -8 -76 -19 -78 -25 -6 -16 -32 -12 -32 5 0 9 -9 15 -24 15
-30 0 -36 31 -24 132 6 48 5 88 -2 118 -6 25 -10 74 -9 110 2 36 1 119 0 185
-2 69 1 131 7 145 10 24 11 24 11 3 1 -19 7 -23 36 -23 20 0 38 6 40 13 20 56
26 67 35 62 5 -3 10 -24 10 -45z"/>
<path d="M1454 1965 c3 -8 1 -15 -5 -15 -5 0 -14 -10 -19 -22 -5 -13 -9 -17
-9 -10 -3 42 -138 -43 -171 -108 -10 -19 -66 -83 -124 -142 -111 -111 -122
-129 -141 -243 -3 -22 -19 -92 -35 -155 -30 -121 -37 -218 -25 -345 7 -76 22
-125 37 -125 6 0 7 7 4 16 -14 36 -19 220 -7 243 9 17 9 30 1 56 -9 28 -8 47
9 106 11 40 30 83 42 95 12 13 23 32 24 41 1 10 8 29 16 43 14 25 16 31 18 62
0 9 17 26 37 37 27 16 35 27 31 42 -12 45 153 174 282 220 69 24 88 27 156 22
76 -6 76 -6 70 -32 -3 -14 -15 -44 -26 -67 -10 -22 -19 -48 -19 -58 0 -13 -6
-16 -32 -12 -124 19 -167 15 -276 -24 -33 -12 -132 -101 -132 -118 0 -6 7 -13
16 -16 25 -9 27 -7 13 10 -12 14 -11 16 6 12 15 -3 19 -11 18 -32 -1 -16 -6
-33 -11 -38 -11 -11 -44 1 -36 13 3 5 0 9 -5 9 -17 0 -13 -30 4 -36 23 -9 18
-34 -6 -34 -15 0 -19 -4 -15 -16 4 -11 -3 -19 -24 -27 -19 -7 -30 -19 -31 -32
-1 -11 -2 -47 -3 -80 -1 -33 -6 -84 -10 -112 -8 -52 -8 -53 17 -53 37 0 42
-17 7 -24 -21 -4 -30 -11 -30 -25 0 -11 5 -23 10 -26 6 -3 10 -16 10 -28 0
-12 9 -28 20 -35 23 -14 27 -37 5 -28 -8 3 -15 3 -15 0 0 -6 47 -71 73 -99 10
-11 20 -31 24 -45 7 -29 50 -90 64 -90 16 0 10 21 -13 40 -13 10 -20 22 -16
26 4 4 20 -5 35 -20 16 -15 52 -47 81 -72 45 -38 59 -44 97 -44 38 0 49 -5 72
-31 16 -17 35 -35 44 -40 18 -9 186 14 201 29 4 4 -7 30 -27 58 -20 28 -35 61
-35 77 0 16 -5 38 -11 50 -12 22 -49 56 -61 57 -11 0 -38 -56 -38 -80 0 -13
-7 -20 -19 -20 -22 0 -101 74 -101 95 0 8 -9 19 -20 25 -24 13 -25 20 -6 46
14 19 15 19 38 -3 20 -19 35 -23 95 -23 59 0 80 5 134 33 47 23 65 38 67 55 2
13 20 33 42 48 32 21 39 32 45 72 4 26 14 55 22 64 14 16 13 18 -13 23 -52 12
-56 14 -49 34 3 11 0 29 -6 39 -10 16 -10 25 4 46 16 24 16 26 -3 36 -10 6
-33 30 -50 55 -17 25 -38 45 -47 45 -9 0 -25 7 -35 16 -27 25 -107 29 -187 9
-68 -16 -85 -28 -58 -38 6 -3 2 -6 -9 -6 -12 -1 -27 -7 -33 -15 -7 -8 -22 -17
-35 -20 -18 -4 -26 -15 -31 -42 -7 -40 -6 -38 -60 -146 l-38 -76 22 -36 c13
-20 26 -36 31 -36 5 0 12 20 16 45 6 45 15 52 48 39 20 -8 21 -43 1 -50 -17
-7 -20 -24 -5 -24 6 0 21 -10 33 -21 l22 -22 -22 6 c-34 8 -38 -10 -6 -27 39
-20 65 -50 57 -69 -12 -32 -34 -27 -61 14 -26 40 -67 69 -97 69 -16 0 -46 48
-46 74 0 9 -11 23 -25 32 -21 14 -28 14 -42 3 -14 -12 -16 -12 -11 1 2 8 18
16 35 18 28 3 31 7 38 50 4 26 13 59 21 74 8 15 14 35 14 46 0 10 14 34 30 52
17 18 30 37 30 41 0 4 29 23 66 43 36 20 74 45 85 55 16 15 42 19 132 24 98 5
114 3 132 -13 11 -10 30 -21 41 -24 12 -4 29 -15 39 -26 10 -11 23 -20 30 -20
20 0 47 -38 51 -71 2 -18 8 -37 13 -43 15 -18 26 -116 13 -116 -6 0 -14 10
-17 21 -5 14 -10 18 -14 10 -6 -9 -11 -8 -21 4 -19 23 -32 18 -28 -12 2 -22 9
-29 33 -33 28 -5 30 -9 33 -52 2 -26 -2 -57 -9 -70 -9 -16 -9 -23 0 -26 6 -2
11 -17 11 -34 0 -23 -4 -28 -17 -24 -12 3 -38 -13 -78 -49 -49 -45 -57 -57
-45 -65 8 -5 11 -10 6 -10 -5 0 -3 -6 3 -14 9 -11 6 -15 -14 -20 -14 -4 -25
-13 -25 -20 0 -8 -3 -22 -7 -32 -6 -15 -2 -16 31 -11 22 3 34 2 31 -4 -4 -5
-15 -9 -25 -9 -23 0 -32 -13 -24 -34 9 -23 35 -20 41 4 4 14 14 20 31 20 l26
0 -32 -30 c-18 -16 -38 -30 -43 -30 -6 0 -7 -5 -4 -11 4 -6 10 -8 13 -5 3 4
15 -3 27 -14 l22 -21 44 36 c100 81 137 122 179 203 25 48 50 82 59 83 11 0
12 2 4 6 -7 2 -13 9 -13 14 0 6 5 7 10 4 6 -3 10 -2 10 4 0 5 -4 13 -10 16
-17 11 -11 64 9 81 16 14 17 22 9 46 -8 22 -8 32 2 38 15 9 13 20 -8 43 -13
15 -14 21 -3 38 10 17 10 23 -3 32 -10 7 -17 29 -18 54 -1 23 -5 40 -10 37 -5
-3 -13 8 -19 25 -13 36 -20 38 -37 11 -14 -23 -44 -26 -61 -7 -16 20 -4 27 32
20 21 -4 28 -3 23 5 -4 7 -20 12 -36 12 -21 0 -35 -9 -51 -32 -16 -22 -24 -27
-27 -17 -3 8 -13 23 -23 35 -19 20 -19 21 11 42 29 22 43 72 20 72 -5 0 -10 5
-10 10 0 6 9 10 20 10 13 0 20 -6 18 -14 -2 -8 2 -15 7 -16 6 -1 20 -11 32
-22 21 -20 24 -20 47 -4 14 9 31 16 38 16 22 0 78 -66 78 -92 0 -30 59 -103
60 -74 0 10 -11 31 -25 48 -14 16 -25 40 -25 53 0 17 -13 32 -46 54 -50 34
-72 39 -80 16 -9 -22 -22 -19 -55 15 -30 30 -36 33 -130 84 -30 16 -57 35 -62
42 -4 7 -14 11 -22 8 -9 -4 -15 0 -15 9 0 9 -9 14 -27 13 -32 -1 -39 17 -24
57 13 33 31 34 99 2 51 -24 72 -25 72 -4 0 5 -12 9 -26 9 -15 0 -42 9 -60 21
-19 11 -37 18 -42 15 -11 -6 -24 4 -40 33 -12 20 -11 26 2 39 15 15 16 15 16
-1 0 -9 4 -17 9 -17 5 0 23 -11 39 -25 18 -15 37 -23 46 -19 9 3 27 -1 41 -10
14 -9 25 -12 25 -7 0 6 7 8 15 5 12 -5 13 -10 4 -20 -6 -7 -8 -18 -4 -24 3 -5
1 -10 -4 -10 -23 0 -9 -28 21 -43 44 -21 56 -10 22 20 l-29 24 33 -16 c32 -15
32 -15 42 10 9 23 15 25 64 25 46 0 58 4 71 22 16 25 17 24 -32 54 -14 9 -8 9
24 1 32 -8 45 -8 57 2 15 13 11 41 -6 41 -5 0 -23 9 -38 20 -25 18 -30 19 -43
5 -20 -19 -33 -20 -17 0 10 12 9 16 -5 21 -10 4 -20 1 -25 -6 -4 -7 -13 -9
-19 -5 -9 5 -9 10 0 21 15 18 16 17 -61 38 -36 10 -74 26 -85 36 -17 16 -36
18 -146 17 -103 -2 -125 1 -121 12 4 11 -6 12 -55 6 -40 -4 -63 -3 -67 4 -11
17 -29 13 -22 -4z m231 -269 c-4 -11 -9 -31 -12 -43 -3 -14 -13 -23 -24 -23
-21 0 -23 9 -10 42 5 13 12 31 15 40 3 11 11 15 21 11 12 -4 15 -12 10 -27z
m194 -189 c29 -13 30 -14 14 -28 -52 -41 -71 -42 -91 -3 -21 40 18 56 77 31z
m31 -77 c0 -5 -4 -10 -10 -10 -5 0 -10 5 -10 10 0 6 5 10 10 10 6 0 10 -4 10
-10z m-157 -147 c35 -35 53 -61 48 -66 -6 -6 -19 -2 -34 10 -14 10 -43 25 -66
33 -29 9 -40 18 -36 28 3 7 5 22 5 33 0 32 24 21 83 -38z m-199 -146 c3 -13
10 -17 24 -12 20 6 40 -9 24 -19 -4 -2 -42 1 -83 8 -40 7 -67 15 -59 18 12 5
12 7 -2 7 -10 1 -18 7 -18 15 0 33 105 17 114 -17z m251 30 c24 -18 3 -32 -26
-17 -27 15 -40 3 -16 -15 24 -17 18 -48 -10 -55 -18 -4 -20 -8 -10 -21 7 -9
19 -18 27 -22 9 -3 5 -6 -11 -6 -28 -1 -54 20 -42 33 4 4 -3 16 -17 27 l-25
19 23 6 c18 5 22 12 18 29 -3 12 -3 25 1 29 11 11 69 6 88 -7z m-65 -193 c0
-9 -5 -14 -12 -12 -18 6 -21 28 -4 28 9 0 16 -7 16 -16z m-186 0 c8 -3 27 -28
41 -56 32 -61 23 -78 -42 -78 -52 0 -65 19 -40 62 9 17 17 41 17 54 0 26 1 27
24 18z"/>
<path d="M1545 899 c-5 -13 -2 -25 6 -30 28 -17 41 19 15 40 -12 10 -16 8 -21
-10z"/>
<path d="M1620 1970 c0 -12 44 -12 80 0 20 6 14 8 -27 9 -29 1 -53 -3 -53 -9z"/>
<path d="M4920 1933 c-14 -3 -33 -12 -42 -20 -10 -9 -26 -13 -38 -10 -21 5
-120 -38 -120 -53 0 -3 -28 -19 -62 -35 -61 -29 -99 -52 -278 -167 -117 -75
-111 -72 -121 -57 -9 13 -5 175 7 282 4 40 2 47 -13 47 -20 0 -87 -36 -121
-65 -22 -20 -30 -59 -13 -69 5 -4 12 -28 16 -56 4 -27 15 -60 25 -73 18 -23
18 -24 -1 -35 -24 -15 -28 -109 -5 -118 23 -9 28 -35 10 -55 -15 -16 -17 -57
-18 -349 -1 -311 0 -332 17 -342 17 -9 17 -11 2 -28 -14 -15 -18 -49 -23 -172
-10 -261 -11 -253 16 -250 13 2 45 17 72 34 48 30 61 50 40 63 -5 3 -10 41
-10 83 0 129 -9 179 -34 187 l-21 6 23 11 c25 13 27 25 7 52 -12 15 -12 22 -3
34 14 17 18 272 5 272 -5 0 -6 18 -2 39 4 24 2 48 -5 62 -10 17 -9 23 1 30 10
6 15 42 18 136 3 119 5 129 30 163 14 19 30 38 36 41 40 26 84 66 85 77 0 6 6
12 13 12 8 0 24 11 37 25 13 14 29 25 35 25 7 0 31 14 53 30 23 17 47 30 54
30 7 0 33 14 58 30 25 16 51 30 58 30 6 0 12 5 12 11 0 6 6 9 13 6 6 -3 32 7
57 21 55 32 194 48 221 25 8 -7 24 -13 35 -13 25 0 108 -85 127 -130 8 -19 24
-45 35 -56 17 -18 22 -40 28 -132 4 -73 11 -113 19 -116 9 -3 10 -17 4 -53 -4
-26 -13 -86 -19 -133 -6 -47 -15 -106 -20 -132 -6 -26 -7 -54 -4 -62 3 -8 -1
-25 -9 -38 -8 -13 -25 -59 -37 -103 -11 -44 -27 -89 -34 -100 -21 -32 -28 -95
-10 -95 23 0 16 -28 -11 -46 -13 -9 -27 -26 -31 -37 -4 -12 -15 -34 -25 -49
-11 -14 -19 -33 -19 -42 0 -8 -20 -55 -45 -103 -51 -98 -55 -123 -24 -123 30
0 149 59 156 76 3 8 -3 21 -13 28 -18 13 -17 17 10 82 36 84 104 258 118 299
5 17 9 49 8 73 -1 30 3 42 13 42 14 0 40 58 52 116 5 28 3 32 -21 38 l-27 7
34 35 c25 26 30 37 21 46 -8 8 -6 19 11 42 25 35 30 88 29 291 0 134 -16 195
-52 195 -11 0 -20 7 -20 15 0 8 7 15 15 15 18 0 18 -2 0 49 -24 68 -116 174
-142 164 -7 -3 -13 1 -13 9 0 18 -73 44 -91 32 -8 -5 -22 -7 -31 -6 -11 2 -18
-3 -18 -12 0 -22 -13 -20 -35 4 -10 11 -21 19 -24 19 -3 -1 -17 -4 -31 -6z"/>
<path d="M3699 1911 c-18 -20 -33 -67 -30 -93 1 -9 -7 -19 -18 -23 -11 -3 -29
-26 -41 -50 -12 -25 -28 -45 -35 -45 -11 0 -41 -44 -119 -173 -10 -18 -41 -67
-68 -109 -28 -42 -47 -82 -43 -87 3 -6 -13 -31 -37 -55 -60 -61 -96 -108 -153
-201 -27 -44 -73 -105 -102 -135 -29 -30 -53 -58 -53 -61 0 -3 -25 -39 -55
-79 -30 -40 -55 -81 -55 -90 0 -9 -26 -47 -57 -86 l-58 -69 -7 95 c-4 52 -5
115 -2 140 2 25 0 51 -5 59 -6 9 -4 26 5 47 11 26 13 91 9 326 -4 217 -1 331
9 432 8 76 13 143 10 151 -3 7 -1 16 5 20 6 3 11 10 11 15 0 15 -90 72 -105
66 -18 -6 -22 -41 -12 -96 4 -25 8 -141 8 -257 0 -117 4 -215 9 -218 5 -3 4
-21 -1 -40 -11 -38 -6 -55 17 -55 19 0 18 -13 -7 -61 -17 -34 -19 -52 -14
-102 3 -34 2 -96 -4 -137 -5 -41 -6 -79 -1 -85 4 -5 4 -52 -1 -102 -9 -83 -8
-97 9 -130 19 -37 19 -37 -1 -53 -20 -16 -19 -17 26 -29 26 -6 47 -13 47 -16
0 -3 -21 -15 -46 -28 -45 -23 -46 -24 -48 -76 -1 -48 1 -55 32 -82 41 -36 51
-36 58 1 6 25 10 28 33 24 24 -5 29 0 54 50 15 31 27 65 27 76 0 10 9 22 20
25 11 4 29 24 40 45 11 21 24 41 30 45 5 3 10 18 10 32 0 14 13 41 30 60 17
18 30 45 30 58 0 16 12 34 35 52 19 15 35 34 35 41 0 8 25 50 56 93 52 74 63
109 34 109 -6 0 -9 4 -6 9 3 5 14 7 24 4 22 -5 93 79 125 149 12 26 27 48 33
48 17 0 138 182 139 209 0 18 7 27 24 31 13 3 27 13 30 21 3 9 31 43 62 77 52
58 56 60 71 43 9 -10 22 -21 29 -25 11 -5 11 -7 1 -12 -30 -14 -43 -37 -37
-63 17 -65 24 -135 15 -150 -11 -22 -15 -154 -5 -204 4 -21 3 -42 -3 -50 -13
-16 -16 -187 -3 -187 6 0 8 -31 4 -85 -4 -59 -2 -89 6 -99 10 -12 9 -22 -2
-48 -14 -30 -37 -293 -29 -330 1 -8 15 -19 30 -25 15 -6 42 -21 60 -33 l32
-22 -1 49 c-2 108 -14 163 -42 189 -34 31 -34 38 0 62 l27 19 2 372 c1 213 6
377 11 384 19 24 15 91 -7 114 -25 27 -26 49 -2 62 15 8 13 11 -13 22 l-30 11
33 14 c32 14 32 15 32 83 0 49 5 74 15 85 8 8 15 19 15 24 0 8 -125 133 -132
131 -1 0 -10 -9 -19 -18z"/>
<path d="M6140 1880 c-14 -16 -30 -29 -36 -30 -6 0 -23 -9 -38 -21 -19 -15
-26 -29 -25 -52 1 -18 -6 -52 -15 -76 -9 -24 -14 -52 -11 -62 4 -13 2 -19 -8
-19 -8 0 -19 -18 -26 -42 -13 -46 -42 -120 -51 -128 -9 -9 -30 -50 -30 -59 0
-5 -29 -70 -65 -145 -36 -74 -65 -139 -65 -144 0 -5 -9 -17 -20 -27 -11 -10
-20 -22 -20 -27 0 -5 -12 -30 -27 -56 -16 -26 -26 -53 -25 -61 3 -10 -4 -12
-28 -8 -29 6 -32 4 -50 -39 -21 -47 -19 -64 6 -64 21 0 18 -10 -27 -91 -22
-41 -53 -101 -69 -134 -16 -33 -40 -75 -54 -94 -14 -19 -26 -41 -26 -49 0 -8
-19 -37 -42 -64 -40 -48 -41 -51 -23 -64 25 -19 61 -18 77 2 7 9 24 27 37 40
18 18 22 31 18 53 -5 21 -1 33 15 47 24 22 88 155 88 184 0 10 4 21 9 24 5 4
25 35 45 70 40 71 68 88 133 79 26 -3 50 0 70 10 27 14 31 14 45 1 12 -12 23
-14 50 -6 19 5 54 6 79 3 24 -4 89 -4 144 -1 95 6 103 5 161 -22 34 -15 63
-28 66 -28 3 0 8 14 12 30 6 32 26 39 45 16 7 -8 21 -48 30 -89 21 -84 36
-117 54 -117 9 0 13 -19 15 -57 1 -32 6 -69 11 -83 4 -14 16 -52 26 -85 9 -33
22 -72 28 -86 12 -25 12 -25 60 -11 64 18 78 49 48 107 -11 22 -23 52 -26 67
-4 14 -17 36 -30 48 -20 18 -22 26 -12 41 9 15 7 22 -11 42 -12 13 -22 27 -22
33 0 14 -66 186 -100 261 -17 36 -30 75 -30 87 0 21 -33 93 -70 153 -11 18
-17 39 -14 47 3 8 -4 33 -15 55 -11 23 -23 56 -27 74 -3 17 -10 38 -15 47 -4
8 -15 38 -24 67 -9 28 -23 57 -30 63 -8 7 -12 17 -9 22 11 18 -26 95 -51 106
-25 12 -34 32 -14 32 13 0 8 61 -14 175 -9 44 -16 81 -17 83 0 1 -8 2 -18 2
-10 0 -29 -13 -42 -30z m-4 -262 c9 -28 25 -65 35 -82 9 -17 22 -50 29 -74 6
-24 19 -50 30 -59 10 -9 16 -21 14 -27 -9 -24 73 -226 92 -226 6 0 14 -21 17
-47 3 -27 19 -73 35 -105 35 -66 43 -96 31 -103 -5 -3 -86 -8 -181 -10 -95 -2
-181 -7 -191 -10 -9 -4 -33 0 -53 10 -20 9 -77 21 -128 25 -85 8 -126 16 -126
27 0 2 16 34 35 72 19 37 35 74 35 83 0 8 9 27 20 41 11 14 34 55 51 92 25 53
29 68 19 80 -10 12 -9 15 9 15 11 0 21 4 21 9 0 6 13 29 28 53 26 39 42 73
106 223 39 92 45 93 72 13z"/>
<path d="M2202 1721 c-14 -40 -50 -61 -117 -68 -30 -3 -58 -10 -62 -16 -3 -5
8 -22 26 -36 17 -14 31 -32 31 -38 0 -9 10 -11 30 -6 19 3 30 1 30 -6 0 -6 7
-11 16 -11 34 0 5 -25 -31 -27 -70 -4 -84 -20 -39 -43 22 -12 27 -12 35 0 8
13 10 13 18 1 5 -8 7 -20 4 -27 -6 -16 30 -36 54 -28 15 5 15 4 3 -5 -12 -8
-12 -13 -2 -23 6 -6 12 -25 12 -40 0 -21 6 -29 25 -34 19 -5 27 -17 39 -59 20
-66 24 -147 8 -153 -17 -5 -15 -22 3 -22 18 0 20 -16 3 -26 -15 -9 -38 23 -38
53 0 20 -2 22 -14 11 -9 -9 -11 -17 -4 -25 10 -13 -23 -53 -43 -53 -8 0 -7 -6
2 -17 12 -15 12 -16 -5 -9 -15 5 -14 1 6 -17 46 -42 86 -68 150 -94 34 -13 81
-38 104 -53 23 -16 44 -26 48 -23 13 13 5 40 -19 63 -26 24 -33 50 -14 50 8 0
8 4 0 14 -9 11 -9 15 0 18 8 3 7 12 -4 34 -16 30 -66 54 -115 54 -11 0 -24 5
-27 10 -9 15 21 12 94 -10 36 -10 75 -19 86 -18 11 0 29 -3 40 -7 13 -5 9 2
-11 18 -22 18 -31 35 -32 57 0 16 4 30 9 30 15 0 10 40 -6 46 -27 11 -16 26
14 19 23 -5 32 -2 39 12 10 18 5 40 -42 158 -8 22 -15 50 -16 63 0 12 -10 30
-21 40 -12 9 -37 30 -55 45 -25 21 -37 26 -50 19 -11 -6 -27 -5 -45 2 -37 13
-38 29 -1 20 24 -7 26 -6 13 9 -12 15 -11 17 7 17 12 0 24 -4 27 -10 9 -15 45
-12 45 4 0 8 -10 23 -22 33 -42 33 -49 48 -38 77 10 29 0 35 -20 11 -15 -18
-61 -20 -78 -3 -7 7 -12 20 -12 30 0 29 -27 21 -38 -11z"/>
<path d="M1990 1390 c0 -5 5 -10 10 -10 6 0 10 5 10 10 0 6 -4 10 -10 10 -5 0
-10 -4 -10 -10z"/>
<path d="M975 993 c4 -10 9 -44 11 -76 3 -32 9 -70 15 -83 5 -14 9 -54 9 -88
0 -51 4 -66 21 -82 12 -10 29 -35 39 -54 39 -74 108 -137 208 -190 89 -47 101
-50 147 -45 28 3 82 -1 125 -10 l75 -15 -67 5 c-43 4 -68 2 -68 -5 0 -5 7 -10
15 -10 8 0 24 -6 35 -12 16 -10 24 -10 40 0 26 16 46 15 75 -4 23 -15 28 -15
65 0 22 9 53 16 68 16 24 1 25 2 8 11 -10 7 -35 8 -58 5 -22 -4 -56 -3 -76 1
-32 7 -26 9 48 14 47 4 113 13 148 22 53 12 68 21 103 61 22 25 47 46 55 46 8
0 23 9 33 19 11 11 29 24 40 31 12 6 30 28 41 50 24 47 25 54 5 46 -21 -8 -19
8 4 28 19 17 39 7 26 -14 -11 -17 60 12 86 36 14 13 28 24 32 24 17 0 5 -35
-24 -69 -17 -20 -45 -58 -63 -85 -24 -37 -62 -70 -147 -129 -181 -124 -191
-130 -249 -142 -52 -11 -54 -12 -32 -24 19 -10 27 -10 46 3 13 8 41 18 62 21
90 16 250 118 346 220 26 27 63 66 82 86 20 19 36 44 36 54 0 14 3 15 15 5 25
-21 30 -2 7 23 -21 22 -17 51 6 45 6 -2 17 6 25 17 23 30 34 9 13 -25 -15 -26
-15 -30 -2 -30 9 0 21 9 28 20 7 11 19 20 26 20 27 0 6 35 -28 46 -19 6 -49
25 -66 43 -20 20 -37 29 -48 25 -10 -4 -16 -1 -16 9 0 9 -8 18 -19 22 -10 3
-26 14 -36 25 -18 19 -54 28 -56 13 0 -5 -2 -31 -2 -60 -2 -39 1 -49 10 -41 8
6 19 6 32 -2 18 -9 23 -7 31 15 11 29 30 25 30 -6 0 -10 -7 -19 -15 -19 -9 0
-18 -6 -21 -14 -4 -10 -16 -13 -37 -10 -28 4 -39 -2 -91 -52 -32 -32 -75 -81
-96 -108 -65 -87 -131 -143 -215 -183 -79 -38 -81 -38 -205 -38 l-125 0 -74
60 c-55 44 -81 59 -100 57 -47 -5 -171 108 -171 155 0 20 -34 83 -69 127 -17
21 -33 55 -37 75 -4 20 -15 53 -25 73 -11 21 -19 44 -19 53 0 8 -5 15 -11 15
-7 0 -8 -7 -4 -17z"/>
</g>
</svg>
